<svg width="50" height="54" viewBox="0 0 50 54" fill="none" xmlns="http://www.w3.org/2000/svg">
<path d="M0.00170824 0.0148468C0.283202 0.933804 2.68331 10.0235 3.55742 13.4696C4.93526 18.9084 5.4785 22.799 5.31553 26.0703C5.21182 28.2478 4.95502 29.7261 4.35252 31.594C4.15004 32.2283 4.0809 32.518 4.0809 32.7377C4.0809 33.372 4.35746 33.9613 5.0686 34.8403C5.16243 34.9552 6.83164 36.5384 8.77247 38.3564C11.78 41.1782 23.4003 52.0358 24.1559 52.73C24.6053 53.1496 24.7485 53.2245 25.0892 53.2245C25.3411 53.2245 25.4349 53.1995 25.6177 53.0797C25.7905 52.9648 42.2159 37.782 44.4876 35.6344C45.4951 34.6855 46.0285 33.8914 46.1568 33.1523C46.2211 32.7777 46.2013 32.6079 45.9791 31.8487C44.8037 27.7933 44.7642 23.2735 45.8605 17.7148C46.2507 15.722 46.6606 14.0739 47.8112 9.84869C48.9323 5.71838 49.4854 3.42098 49.8607 1.34833C49.9447 0.873871 50.0089 0.384426 49.999 0.259567L49.9842 0.0348244L48.9718 0.963768C44.942 4.67456 42.2604 6.97195 39.6479 8.96469C35.4058 12.196 31.6426 14.3686 27.4992 15.9767L26.8227 16.2414H26.0572C25.3559 16.2414 25.2176 16.2265 24.4127 16.0517C20.215 15.1427 16.1407 13.0501 11.2417 9.27934C9.83918 8.20056 8.328 6.95697 4.50067 3.73563C2.46602 2.01757 0.609143 0.459343 0.381972 0.269558C0.135048 0.0597954 -0.0180457 -0.0400925 0.00170824 0.0148468ZM5.40936 6.17286C6.94523 7.45641 9.37003 9.47412 10.7973 10.6578C13.4739 12.8803 13.6122 13.0101 13.6122 13.3547C13.6122 13.4396 13.5579 13.5845 13.4937 13.6843C13.3406 13.9091 6.74275 21.5205 6.71806 21.4955C6.6983 21.4755 6.75756 21.7352 4.37227 11.7116C3.34507 7.3765 2.50059 3.82053 2.50059 3.80555C2.50059 3.75061 2.58948 3.82552 5.40936 6.17286ZM47.4409 5.46367C47.2285 6.36764 46.305 10.3281 45.3914 14.2687C44.4728 18.2092 43.7074 21.4555 43.6876 21.4755C43.6432 21.5304 37.2478 14.1538 37.0256 13.7892C36.8972 13.5795 36.8478 13.4446 36.833 13.2299C36.8182 12.9701 36.828 12.9352 36.9564 12.8153C37.0305 12.7404 38.2404 11.7415 39.638 10.5928C42.2752 8.4303 44.9864 6.18285 46.7692 4.69454C47.3322 4.22008 47.8014 3.83052 47.8112 3.83052C47.8162 3.83052 47.6483 4.56469 47.4409 5.46367ZM16.5457 14.4185C17.0938 14.7032 24.1608 17.6299 24.6991 17.7947C25.0695 17.9095 25.2374 17.9295 25.7115 17.9345C26.2004 17.9345 26.3337 17.9145 26.6498 17.8047C26.9659 17.6948 33.5884 14.6882 34.0477 14.4485C34.1366 14.4035 34.2057 14.3786 34.2057 14.3885C34.2057 14.4235 25.1288 27.0592 25.0547 27.1341C25.0102 27.179 23.8596 25.6108 20.3532 20.7264C17.8 17.1704 15.7012 14.2337 15.6913 14.2087C15.6518 14.0939 16.1654 14.2237 16.5457 14.4185ZM38.4182 17.4251C42.0925 21.5704 42.0085 21.4705 42.5715 22.4844C43.7617 24.6419 44.3839 27.8383 44.3987 31.8737C44.4037 33.4519 44.3889 33.5618 44.0333 34.0562C43.8061 34.3809 44.0086 34.1861 34.1761 43.3657C29.9092 47.3462 26.2844 50.6974 26.1165 50.8172L25.8103 51.032V39.7498V28.4626L30.8376 21.5404C33.5983 17.7347 35.8749 14.6183 35.8947 14.6183C35.9095 14.6183 37.0453 15.8818 38.4182 17.4251ZM19.2371 21.6303L24.1806 28.4676V39.6998V50.9371L24.062 50.8422C23.9978 50.7922 21.4051 48.36 18.2988 45.4333C15.1925 42.5066 11.2417 38.7909 9.52312 37.1727C6.47607 34.3109 6.06124 33.8864 5.85876 33.422C5.69085 33.0374 5.69579 32.8926 5.98222 30.6701C6.13531 29.4914 6.34767 27.8433 6.45138 27.0042C6.56003 26.1652 6.6983 25.2462 6.75263 24.9566C7.01437 23.6331 7.50822 22.6292 8.46134 21.4855C8.64407 21.2657 9.94783 19.7724 11.3652 18.1643C12.7776 16.5561 14.0122 15.1327 14.1011 15.0028C14.19 14.868 14.269 14.7681 14.2789 14.7781C14.2888 14.7881 16.516 17.8696 19.2371 21.6303Z" fill="black"/>
</svg>
